<svg xmlns="http://www.w3.org/2000/svg" width="21.447" height="20" viewBox="0 0 21.447 20">
  <g id="Group_13497" data-name="Group 13497" transform="translate(-16 -283.151)">
    <path id="Icon_material-wifi-tethering" data-name="Icon material-wifi-tethering" d="M13.724,13.079a2.145,2.145,0,1,0,2.145,2.145A2.151,2.151,0,0,0,13.724,13.079Zm6.434,2.145a6.434,6.434,0,1,0-9.651,5.566l1.072-1.866a4.289,4.289,0,1,1,4.289,0l1.072,1.866A6.431,6.431,0,0,0,20.158,15.224ZM13.724,4.5a10.721,10.721,0,0,0-5.373,20l1.072-1.855a8.584,8.584,0,1,1,8.59,0L19.086,24.5a10.717,10.717,0,0,0-5.362-20Z" transform="translate(13 278.651)" fill="#03b7da"/>
  </g>
</svg>
