<svg xmlns="http://www.w3.org/2000/svg" width="15.455" height="20" viewBox="0 0 15.455 20">
  <path id="Icon_material-phonelink-lock" data-name="Icon material-phonelink-lock" d="M19.637,1.5H10.546A1.824,1.824,0,0,0,8.727,3.318V6.046h1.818V4.227h9.091V18.773H10.546V16.955H8.727v2.727A1.824,1.824,0,0,0,10.546,21.5h9.091a1.824,1.824,0,0,0,1.818-1.818V3.318A1.824,1.824,0,0,0,19.637,1.5Zm-7.455,9.091V9.227A2.5,2.5,0,0,0,9.636,6.955,2.5,2.5,0,0,0,7.091,9.227v1.364A1.173,1.173,0,0,0,6,11.682v3.182a1.19,1.19,0,0,0,1.091,1.182h5a1.19,1.19,0,0,0,1.182-1.091V11.773A1.19,1.19,0,0,0,12.182,10.591Zm-1.182,0H8.273V9.227A1.25,1.25,0,0,1,9.636,8.046,1.25,1.25,0,0,1,11,9.227Z" transform="translate(-6 -1.5)" fill="#ffa800"/>
</svg>
