<svg xmlns="http://www.w3.org/2000/svg" width="19" height="19" viewBox="0 0 19 19">
  <g id="Icon_ionic-ios-add-circle-outline" data-name="Icon ionic-ios-add-circle-outline" transform="translate(-3.375 -3.375)">
    <path id="Path_18569" data-name="Path 18569" d="M19.509,14.645h-3.4v-3.4a.731.731,0,0,0-1.462,0v3.4h-3.4a.7.7,0,0,0-.731.731.707.707,0,0,0,.731.731h3.4v3.4a.708.708,0,0,0,.731.731.727.727,0,0,0,.731-.731v-3.4h3.4a.731.731,0,0,0,0-1.462Z" transform="translate(-2.501 -2.501)" fill="#fff"/>
    <path id="Path_18570" data-name="Path 18570" d="M12.875,4.654A8.218,8.218,0,1,1,7.061,7.061a8.167,8.167,0,0,1,5.814-2.407m0-1.279a9.5,9.5,0,1,0,9.5,9.5,9.5,9.5,0,0,0-9.5-9.5Z" transform="translate(0 0)" fill="#fff"/>
  </g>
</svg>
