<svg xmlns="http://www.w3.org/2000/svg" width="16" height="16" viewBox="0 0 16 16">
    <g id="Group_13098" data-name="Group 13098" transform="translate(-62 -291)">
        <circle id="Ellipse_357" data-name="Ellipse 357" cx="8" cy="8" r="8"
            transform="translate(62 291)" fill="#fff" />
        <path id="Icon_awesome-check-circle" data-name="Icon awesome-check-circle"
            d="M16.563,8.563a8,8,0,1,1-8-8A8,8,0,0,1,16.563,8.563ZM7.637,12.8l5.935-5.935a.516.516,0,0,0,0-.73l-.73-.73a.516.516,0,0,0-.73,0L7.272,10.244l-2.26-2.26a.516.516,0,0,0-.73,0l-.73.73a.516.516,0,0,0,0,.73L6.907,12.8A.516.516,0,0,0,7.637,12.8Z"
            transform="translate(61.438 290.438)" fill="#1174cc" />
    </g>
</svg>
