<svg xmlns="http://www.w3.org/2000/svg" width="8.103" height="14.68" viewBox="0 0 8.103 14.68">
  <g id="Group_13107" data-name="Group 13107" transform="translate(-590.341 -26.634)">
    <path id="Path_18562" data-name="Path 18562" d="M594.351,84.839c-.343.42-.908.322-1.429.321s-.7-.125-.7-.49c0-1.455,0-2.91,0-4.365v-.455c-.378,0-.72,0-1.062,0-.519-.005-.8-.173-.806-.524-.011-1.515-.02-3.031,0-4.546.009-.6.6-.978,1.475-1,.505-.011,1.012-.008,1.518,0s1.027.465.827.772a1.631,1.631,0,0,0,.008,1.986,1.33,1.33,0,0,0,.258.358,6.932,6.932,0,0,0,.549-1.3c.053-.254-.186-.534-.273-.806-.062-.193-.221-.447-.107-.575a1.294,1.294,0,0,1,1.211-.441c.364.046.75,0,1.125.01.888.02,1.478.406,1.486,1.022.019,1.5.012,2.99,0,4.486,0,.386-.277.556-.845.56-.289,0-.578,0-.867,0-.028,0-.056.007-.141.019-.006.1-.019.2-.019.306q0,2.183,0,4.365c0,.539-.11.617-.864.618A1.926,1.926,0,0,1,594.351,84.839Z" transform="translate(0 -43.856)" fill="#fff"/>
    <path id="Path_18563" data-name="Path 18563" d="M618.65,28.105a1.478,1.478,0,1,1-2.955.012,1.478,1.478,0,0,1,2.955-.012Z" transform="translate(-22.781)" fill="#fff"/>
  </g>
</svg>
