<svg xmlns="http://www.w3.org/2000/svg" width="38.787" height="13.641" viewBox="0 0 38.787 13.641">
  <path id="Union_2" data-name="Union 2" d="M5248.258-501.652a1,1,0,0,1,0-1.414l4.114-4.114H5218a1,1,0,0,1-1-1,1,1,0,0,1,1-1h34.372l-4.114-4.113a1,1,0,0,1,0-1.414,1,1,0,0,1,1.414,0l5.821,5.82a.988.988,0,0,1,.213.316l0,0,.007.017,0,.008.005.014,0,.011,0,.011,0,.014,0,.007.005.017v.005c0,.006,0,.013.005.019v0l.005.021v0l.005.023h0l0,.023h0c0,.008,0,.015,0,.023h0c0,.007,0,.015,0,.022v0l0,.021s0,0,0,0,0,.013,0,.02a.025.025,0,0,1,0,.006c0,.006,0,.012,0,.018a.05.05,0,0,0,0,.009c0,.005,0,.01,0,.016a.109.109,0,0,0,0,.013v.012c0,.008,0,.017,0,.025s0,.017,0,.025v.012a.109.109,0,0,0,0,.013c0,.005,0,.01,0,.016a.051.051,0,0,0,0,.009c0,.006,0,.012,0,.018a.024.024,0,0,1,0,.006c0,.007,0,.013,0,.02s0,0,0,0l0,.021v0c0,.007,0,.015,0,.022h0l0,.023h0l-.01.047h0c0,.007,0,.015-.005.022v0c0,.007,0,.013-.005.02v0l-.005.018,0,.007,0,.015,0,.01,0,.011,0,.013,0,.008-.007.017,0,0-.009.021h0a1,1,0,0,1-.2.3l-5.821,5.821a1,1,0,0,1-.707.293A1,1,0,0,1,5248.258-501.652Z" transform="translate(-5217 515)" fill="#1174cc"/>
</svg>
