<svg xmlns="http://www.w3.org/2000/svg" width="17.9" height="17.9" viewBox="0 0 17.9 17.9">
  <path id="person" d="M20.909,22.4A1.461,1.461,0,0,0,22.4,20.909c0-1.492-1.492-5.967-8.95-5.967S4.5,19.417,4.5,20.909A1.461,1.461,0,0,0,5.992,22.4ZM6,20.992v0Zm.025-.084H20.876l.021,0,.012,0a3.983,3.983,0,0,0-1.241-2.482c-.973-.972-2.8-1.986-6.217-1.986s-5.245,1.014-6.217,1.987A3.994,3.994,0,0,0,5.992,20.9Zm14.879.084v0ZM13.45,11.958a2.983,2.983,0,1,0-2.983-2.983A2.983,2.983,0,0,0,13.45,11.958Zm4.475-2.983A4.475,4.475,0,1,1,13.45,4.5,4.475,4.475,0,0,1,17.925,8.975Z" transform="translate(-4.5 -4.5)" fill="#fff" fill-rule="evenodd"/>
</svg>
