<svg xmlns="http://www.w3.org/2000/svg" width="19.24" height="25.656" viewBox="0 0 19.24 25.656">
    <path
        d="M9.622,8.018A4.009,4.009,0,1,0,5.613,4.009,4.008,4.008,0,0,0,9.622,8.018ZM6.946,20.485l1.283-1.6L5.147,16.316l-2.3,2.876a2.008,2.008,0,0,0-.04,2.455l2.405,3.207a2,2,0,0,0,3.207-2.405ZM14.1,16.316l-3.082,2.566,1.283,1.6-1.473,1.964a2,2,0,0,0,3.207,2.405l2.405-3.207a2.008,2.008,0,0,0-.04-2.455l-2.3-2.876Zm4.78-9.05a2.007,2.007,0,0,0-2.791-.491L14.052,8.2a7.751,7.751,0,0,1-8.859,0L3.158,6.78A2,2,0,0,0,.853,10.057l2.034,1.428a11.89,11.89,0,0,0,2.726,1.4v1.548h8.018V12.888a11.89,11.89,0,0,0,2.726-1.4l2.034-1.428A2.008,2.008,0,0,0,18.877,7.266Z"
        transform="translate(-0.003)" fill="#dc77df" />
</svg>