<svg xmlns="http://www.w3.org/2000/svg" width="24.5" height="28" viewBox="0 0 24.5 28">
  <path id="Icon_awesome-birthday-cake" data-name="Icon awesome-birthday-cake" d="M24.5,21c-1.532,0-1.71-1.75-4.074-1.75S17.865,21,16.338,21s-1.72-1.75-4.088-1.75C9.907,19.25,9.668,21,8.176,21c-1.539,0-1.706-1.75-4.088-1.75S1.537,21,0,21V16.625A2.626,2.626,0,0,1,2.625,14H3.5V6.125H7V14h3.5V6.125H14V14h3.5V6.125H21V14h.875A2.626,2.626,0,0,1,24.5,16.625Zm0,7H0V22.75C2.371,22.75,2.558,21,4.088,21S5.8,22.75,8.176,22.75c2.343,0,2.582-1.75,4.074-1.75,1.539,0,1.706,1.75,4.088,1.75S18.9,21,20.426,21c1.5,0,1.709,1.75,4.074,1.75ZM5.25,5.25A1.745,1.745,0,0,1,3.5,3.5C3.5,1.8,5.25,2.242,5.25,0,5.906,0,7,1.613,7,3.063S6.221,5.25,5.25,5.25Zm7,0A1.745,1.745,0,0,1,10.5,3.5c0-1.7,1.75-1.258,1.75-3.5C12.906,0,14,1.613,14,3.063S13.221,5.25,12.25,5.25Zm7,0A1.745,1.745,0,0,1,17.5,3.5c0-1.7,1.75-1.258,1.75-3.5C19.906,0,21,1.613,21,3.063S20.221,5.25,19.25,5.25Z" fill="#03b7da"/>
</svg>
