<svg xmlns="http://www.w3.org/2000/svg" width="17.904" height="17.9" viewBox="0 0 17.904 17.9">
  <g id="Icon_feather-pie-chart" data-name="Icon feather-pie-chart" transform="translate(-1.498 -1.5)">
    <path id="Path_18622" data-name="Path 18622" d="M10.455,19.97A8.952,8.952,0,0,1,6.87,2.813.814.814,0,0,1,7.521,4.3,7.324,7.324,0,1,0,17.2,13.87a.814.814,0,0,1,1.5.634,8.95,8.95,0,0,1-8.24,5.466Z" transform="translate(0 -0.569)" fill="#fff"/>
    <path id="Path_18623" data-name="Path 18623" d="M25.452,11.266H17.314a.814.814,0,0,1-.814-.814V2.314a.814.814,0,0,1,.814-.814,8.945,8.945,0,0,1,8.952,8.952A.814.814,0,0,1,25.452,11.266ZM18.128,9.638h6.465a7.339,7.339,0,0,0-6.465-6.465Z" transform="translate(-6.863)" fill="#fff"/>
  </g>
</svg>
