<svg xmlns="http://www.w3.org/2000/svg" width="18.349" height="20.15" viewBox="0 0 18.349 20.15">
  <g id="Icon_feather-bell" data-name="Icon feather-bell" transform="translate(-2.977 -1.5)">
    <path id="Path_18611" data-name="Path 18611" d="M20.4,17.073H3.907a.924.924,0,0,1-.893-.657A.9.9,0,0,1,3.393,15.4a4.648,4.648,0,0,0,1.156-1.534,12.865,12.865,0,0,0,1.19-5.953,6.413,6.413,0,0,1,12.825,0,12.865,12.865,0,0,0,1.19,5.953A4.648,4.648,0,0,0,20.911,15.4a.9.9,0,0,1,.379,1.018A.924.924,0,0,1,20.4,17.073ZM5.876,15.241H18.428q-.1-.171-.209-.363a14.525,14.525,0,0,1-1.486-6.966,4.58,4.58,0,1,0-9.161,0,14.525,14.525,0,0,1-1.486,6.966Q5.981,15.07,5.876,15.241Z" fill="#ec4217"/>
    <path id="Path_18612" data-name="Path 18612" d="M16.406,32.745a2.757,2.757,0,0,1-2.377-1.369.916.916,0,1,1,1.585-.919.916.916,0,0,0,1.585,0,.916.916,0,1,1,1.585.919A2.757,2.757,0,0,1,16.406,32.745Z" transform="translate(-4.254 -11.094)" fill="#ec4217"/>
  </g>
</svg>
