<svg xmlns="http://www.w3.org/2000/svg" width="20.034" height="22" viewBox="0 0 20.034 22">
  <g id="Group_13689" data-name="Group 13689" transform="translate(-290.177 -25.5)">
    <g id="Group_13688" data-name="Group 13688">
      <g id="Group_13687" data-name="Group 13687">
        <g id="Group_13686" data-name="Group 13686">
          <g id="Icon_feather-bell" data-name="Icon feather-bell" transform="translate(287.2 24)">
            <path id="Path_18611" data-name="Path 18611" d="M22,18.5h-18a1.009,1.009,0,0,1-.975-.717.981.981,0,0,1,.414-1.111A5.075,5.075,0,0,0,4.693,15a14.046,14.046,0,0,0,1.3-6.5,7,7,0,0,1,14,0,14.046,14.046,0,0,0,1.3,6.5,5.075,5.075,0,0,0,1.263,1.674.981.981,0,0,1,.414,1.111A1.009,1.009,0,0,1,22,18.5Zm-15.853-2h13.7q-.114-.187-.229-.4A15.859,15.859,0,0,1,17.995,8.5a5,5,0,0,0-10,0,15.859,15.859,0,0,1-1.622,7.605Q6.257,16.316,6.142,16.5Z" fill="#fff"/>
            <path id="Path_18612" data-name="Path 18612" d="M16.635,33a3.01,3.01,0,0,1-2.6-1.495,1,1,0,0,1,1.73-1,1,1,0,0,0,1.73,0,1,1,0,0,1,1.73,1A3.01,3.01,0,0,1,16.635,33Z" transform="translate(-3.641 -9.497)" fill="#fff"/>
          </g>
        </g>
      </g>
    </g>
  </g>
</svg>
