<svg xmlns="http://www.w3.org/2000/svg" width="17.901" height="17.901" viewBox="0 0 17.901 17.901">
  <g id="Icon_feather-settings" data-name="Icon feather-settings" transform="translate(-0.95 -0.95)">
    <path id="Path_18485" data-name="Path 18485" d="M15.778,12.95a2.828,2.828,0,1,1-2.828,2.828A2.831,2.831,0,0,1,15.778,12.95Zm0,4.592a1.764,1.764,0,1,0-1.764-1.764A1.766,1.766,0,0,0,15.778,17.542Z" transform="translate(-5.878 -5.878)" fill="#fff"/>
    <path id="Path_18486" data-name="Path 18486" d="M9.962,18.851A2.065,2.065,0,0,1,7.9,16.788v-.062a.726.726,0,0,0-.478-.663L7.39,16.05a.73.73,0,0,0-.8.144l-.044.044A2.064,2.064,0,1,1,3.624,13.32l.043-.043a.727.727,0,0,0,.144-.8l0-.005a.73.73,0,0,0-.669-.443H3.013a2.063,2.063,0,0,1,0-4.125h.062a.726.726,0,0,0,.663-.478L3.75,7.39a.727.727,0,0,0-.144-.8l-.044-.044A2.064,2.064,0,1,1,6.481,3.624l.043.043a.73.73,0,0,0,.8.144.532.532,0,0,1,.143-.04.73.73,0,0,0,.366-.63V3.013a2.063,2.063,0,0,1,4.125,0v.069a.729.729,0,0,0,.443.666l.005,0a.73.73,0,0,0,.8-.144l.044-.044a2.064,2.064,0,1,1,2.918,2.919l-.043.043a.727.727,0,0,0-.144.8.532.532,0,0,1,.04.143.73.73,0,0,0,.63.366h.128a2.063,2.063,0,1,1,0,4.125h-.069a.729.729,0,0,0-.666.443l0,.005a.727.727,0,0,0,.144.8l.044.044a2.064,2.064,0,1,1-2.919,2.918l-.043-.043a.73.73,0,0,0-.8-.144l-.005,0a.73.73,0,0,0-.443.669v.128A2.065,2.065,0,0,1,9.962,18.851ZM7.8,15.07a1.785,1.785,0,0,1,1.159,1.637s0,.008,0,.012v.069a1,1,0,1,0,2,0v-.13a1.8,1.8,0,0,1,3.062-1.283l0,0,.046.046a1,1,0,1,0,1.413-1.413l-.046-.046,0,0A1.805,1.805,0,0,1,16.717,10.9h.071a1,1,0,1,0,0-2h-.13a1.8,1.8,0,0,1-1.645-1.088.532.532,0,0,1-.041-.163,1.786,1.786,0,0,1,.4-1.873l0,0,.046-.046a1,1,0,1,0-1.413-1.413l-.046.046,0,0A1.805,1.805,0,0,1,10.9,3.084V3.013a1,1,0,1,0-2,0v.13A1.8,1.8,0,0,1,7.814,4.788a.532.532,0,0,1-.163.041,1.8,1.8,0,0,1-1.873-.4l0,0-.046-.046A1,1,0,1,0,4.315,5.789l.046.046,0,0A1.786,1.786,0,0,1,4.731,7.8,1.785,1.785,0,0,1,3.094,8.963H3.013a1,1,0,0,0,0,2h.13a1.805,1.805,0,0,1,1.283,3.062l0,0-.046.046a1,1,0,1,0,1.413,1.413l.046-.046,0,0A1.795,1.795,0,0,1,7.8,15.07Z" fill="#fff"/>
  </g>
</svg>
