<svg xmlns="http://www.w3.org/2000/svg" width="18.645" height="18.65" viewBox="0 0 18.645 18.65">
  <g id="Group_13499" data-name="Group 13499" transform="translate(-195 -177)">
    <g id="Group_13498" data-name="Group 13498">
      <g id="Icon_ionic-ios-timer" data-name="Icon ionic-ios-timer" transform="translate(191.063 173.063)">
        <path id="Path_18456" data-name="Path 18456" d="M13.263,22.588A9.325,9.325,0,0,1,6.791,6.549a.749.749,0,0,1,1.04,1.077,7.826,7.826,0,1,0,6.178-2.154V8.39a.751.751,0,0,1-1.5,0v-3.7a.75.75,0,0,1,.751-.751,9.325,9.325,0,0,1,0,18.65Z" transform="translate(0 0)" fill="#fff"/>
        <path id="Path_18457" data-name="Path 18457" d="M11.992,11.339l4.639,3.334A1.4,1.4,0,1,1,15,16.957a1.356,1.356,0,0,1-.326-.326l-3.334-4.639a.468.468,0,0,1,.653-.653Z" transform="translate(-2.464 -2.464)" fill="#fff"/>
      </g>
    </g>
  </g>
</svg>
