<svg id="Icon_feather-clock" data-name="Icon feather-clock" xmlns="http://www.w3.org/2000/svg" width="17" height="17" viewBox="0 0 17 17">
  <path id="Path_18602" data-name="Path 18602" d="M10,1.5a8.5,8.5,0,0,1,3.309,16.332A8.5,8.5,0,0,1,6.691,2.168,8.447,8.447,0,0,1,10,1.5Zm0,15.455A6.955,6.955,0,1,0,3.045,10,6.962,6.962,0,0,0,10,16.955Z" transform="translate(-1.5 -1.5)" fill="#03b7da"/>
  <path id="Path_18603" data-name="Path 18603" d="M20.363,15.227a.769.769,0,0,1-.345-.082L16.927,13.6a.773.773,0,0,1-.427-.691V8.273a.773.773,0,1,1,1.545,0v4.159l2.664,1.332a.773.773,0,0,1-.346,1.464Z" transform="translate(-8.773 -4.409)" fill="#03b7da"/>
</svg>
