<svg xmlns="http://www.w3.org/2000/svg" width="19.305" height="18.65" viewBox="0 0 19.305 18.65">
  <g id="Group_13497" data-name="Group 13497" transform="translate(-427.13 -431.813)">
    <path id="Path_18455" data-name="Path 18455" d="M427.13,440.66a8.024,8.024,0,0,1,.635-1.513,3.42,3.42,0,0,1,5.457-.276c.046.053.094.105.171.19.326-.2.65-.4.972-.6,1.609-1,3.222-2,4.82-3.023a.812.812,0,0,0,.344-.522,3.452,3.452,0,0,1,3.275-3.1,3.4,3.4,0,0,1,3.565,2.9.381.381,0,0,0,.063.106v.858a9.138,9.138,0,0,1-.579,1.444,3.38,3.38,0,0,1-2.724,1.6v4.822a3.425,3.425,0,0,1,2.877,1.849,8.722,8.722,0,0,1,.426,1.188v.858a9.483,9.483,0,0,1-.687,1.582,3.356,3.356,0,0,1-3.66,1.328,3.393,3.393,0,0,1-2.524-2.918.921.921,0,0,0-.5-.766c-1.776-1.086-3.536-2.2-5.3-3.3-.118-.074-.238-.145-.364-.222a3.511,3.511,0,0,1-3,1.4,3.443,3.443,0,0,1-3.189-2.743,2.607,2.607,0,0,0-.083-.279Zm12.443-4.685-5.846,3.654a3.491,3.491,0,0,1,0,2.948l5.858,3.657a3.588,3.588,0,0,1,2.876-2.675V438.7A3.564,3.564,0,0,1,439.573,435.974Zm3.382-2.955a2.237,2.237,0,1,0,2.271,2.241A2.238,2.238,0,0,0,442.955,433.019Zm0,16.224a2.237,2.237,0,1,0-2.237-2.232A2.249,2.249,0,0,0,442.954,449.244Zm-12.365-5.9a2.241,2.241,0,1,0-2.251-2.221A2.251,2.251,0,0,0,430.589,443.339Z" fill="#fff"/>
  </g>
</svg>
