<svg xmlns="http://www.w3.org/2000/svg" width="18.868" height="20.965" viewBox="0 0 18.868 20.965">
  <path id="calendar-month-outline" d="M8.693,13.482h2.1v2.1h-2.1v-2.1M23.368,7.193V21.868a2.1,2.1,0,0,1-2.1,2.1H6.6a2.1,2.1,0,0,1-2.1-2.1V7.193A2.1,2.1,0,0,1,6.6,5.1H7.645V3h2.1V5.1h8.386V3h2.1V5.1h1.048a2.1,2.1,0,0,1,2.1,2.1M6.6,9.289H21.272v-2.1H6.6v2.1M21.272,21.868V11.386H6.6V21.868H21.272m-4.193-6.289v-2.1h2.1v2.1h-2.1m-4.193,0v-2.1h2.1v2.1h-2.1m-4.193,2.1h2.1v2.1h-2.1v-2.1m8.386,2.1v-2.1h2.1v2.1h-2.1m-4.193,0v-2.1h2.1v2.1Z" transform="translate(-4.5 -3)" fill="#fff"/>
</svg>
