<svg xmlns="http://www.w3.org/2000/svg" width="28.2" height="21.605" viewBox="0 0 28.2 21.605">
  <g id="Group_13029" data-name="Group 13029" transform="translate(526.365 -14.256)">
    <path id="Path_18540" data-name="Path 18540" d="M-526.365,15.363a1.471,1.471,0,0,1,1.051-1.058,2.209,2.209,0,0,1,.49-.047q11.152,0,22.3,0a1.4,1.4,0,0,1,1.531,1.518q.006,4.558,0,9.116c0,.109.011.254-.05.318a.845.845,0,0,1-.428.271.358.358,0,0,1-.385-.323,1.834,1.834,0,0,1-.018-.357q0-4.448,0-8.9c0-.625-.138-.765-.757-.765h-22.111c-.6,0-.744.14-.744.746q0,6.073,0,12.145v.35h9.633a2.081,2.081,0,0,1,.356.023.4.4,0,0,1,.361.443.4.4,0,0,1-.377.4,2.463,2.463,0,0,1-.33.014h-9.63c0,.524-.015,1.024.007,1.524a.422.422,0,0,0,.394.4,2.381,2.381,0,0,0,.355.026h8.922c.453,0,.661.138.662.436s-.215.445-.659.447h-.326l-.361,2.878c.284,0,.538,0,.793,0,.351,0,.551.167.553.441s-.2.44-.547.441q-1.074,0-2.148,0c-.328,0-.525-.168-.528-.433s.2-.438.518-.449c.146,0,.292,0,.466,0L-517,32.1h-.341c-2.386,0-4.773-.02-7.159.01a1.673,1.673,0,0,1-1.86-1.1Z" transform="translate(0 0)" fill="#fff"/>
    <path id="Path_18541" data-name="Path 18541" d="M-339.53,143.8q0,2.491,0,4.983a1.4,1.4,0,0,1-1.547,1.549q-3.138,0-6.276,0a1.4,1.4,0,0,1-1.535-1.541q0-5.024,0-10.048a1.4,1.4,0,0,1,1.541-1.533q3.138,0,6.276,0a1.392,1.392,0,0,1,1.541,1.553Q-339.528,141.281-339.53,143.8Zm-.905,3.758v-7.565h-7.553v7.565Zm0-8.478c.086-.732-.022-1.007-.826-1-1.743.025-3.486.008-5.229.008-.33,0-.661-.006-.991,0a.467.467,0,0,0-.5.443,4.2,4.2,0,0,0,0,.541Zm-7.547,9.386c-.082.729.052,1,.843.991,2-.026,4-.009,6-.009a1.747,1.747,0,0,0,.3-.011.457.457,0,0,0,.413-.416,5.144,5.144,0,0,0,0-.555Z" transform="translate(-165.234 -114.472)" fill="#fff"/>
    <path id="Path_18542" data-name="Path 18542" d="M-193.091,196.372c0,1.056,0,2.112,0,3.167a1.394,1.394,0,0,1-1.507,1.512q-1.294,0-2.589,0a1.368,1.368,0,0,1-1.491-1.44q-.025-3.236,0-6.472a1.376,1.376,0,0,1,1.489-1.449q1.308-.008,2.616,0a1.393,1.393,0,0,1,1.481,1.487C-193.088,194.243-193.091,195.307-193.091,196.372Zm-.9,1.908v-3.8h-3.782v3.8Zm-3.795.9c0,.191-.014.356,0,.519a.464.464,0,0,0,.484.461q1.414.013,2.828,0a.474.474,0,0,0,.491-.46,5.143,5.143,0,0,0,0-.519Zm-.011-5.632h3.826c0-.1,0-.167,0-.24,0-.578-.155-.739-.729-.74q-1.21,0-2.421,0c-.5,0-.673.175-.677.68C-197.8,193.344-197.8,193.435-197.8,193.551Z" transform="translate(-305.075 -165.193)" fill="#fff"/>
  </g>
</svg>
