<svg id="Group_13130" data-name="Group 13130" xmlns="http://www.w3.org/2000/svg" width="19.906" height="17.607" viewBox="0 0 19.906 17.607">
  <path id="Path_18571" data-name="Path 18571" d="M-917.742,370.364l1.491-1.142,11.126,14.529-1.49,1.143Z" transform="translate(921.382 -369.222)" fill="#a4a4a4"/>
  <path id="Path_18572" data-name="Path 18572" d="M-805.437,421a14.007,14.007,0,0,1,5.98.223A14.015,14.015,0,0,1-793,424.9l-1.316,1.311c-.358-.307-.713-.636-1.092-.933a12.072,12.072,0,0,0-6.172-2.534A12.571,12.571,0,0,0-804,422.7a.286.286,0,0,1-.216-.08c-.4-.513-.8-1.034-1.194-1.553A.438.438,0,0,1-805.437,421Z" transform="translate(812.907 -419.022)" fill="#a4a4a4"/>
  <path id="Path_18573" data-name="Path 18573" d="M-790.646,769.689a2.039,2.039,0,0,1-2.052-2.039,2.053,2.053,0,0,1,2.046-2.051,2.055,2.055,0,0,1,2.044,2.054A2.041,2.041,0,0,1-790.646,769.689Z" transform="translate(800.602 -752.082)" fill="#a4a4a4"/>
  <path id="Path_18574" data-name="Path 18574" d="M-721.62,535.919a10.208,10.208,0,0,1,6.781,2.948l-1.321,1.321c-.245-.208-.5-.438-.772-.652a8.124,8.124,0,0,0-2.9-1.453.683.683,0,0,1-.4-.264c-.441-.592-.894-1.174-1.343-1.761-.024-.031-.045-.063-.068-.1Z" transform="translate(731.969 -530.234)" fill="#a4a4a4"/>
  <path id="Path_18575" data-name="Path 18575" d="M-1019.074,458.877a12.217,12.217,0,0,0-4.082,2.683l-1.328-1.335c.237-.217.488-.46.752-.688a14.2,14.2,0,0,1,3.312-2.129.194.194,0,0,1,.289.071c.306.416.625.823.939,1.233C-1019.155,458.76-1019.121,458.811-1019.074,458.877Z" transform="translate(1024.484 -454.366)" fill="#a4a4a4"/>
  <path id="Path_18576" data-name="Path 18576" d="M-938.2,553.883a8.638,8.638,0,0,0-2.091.838,8.307,8.307,0,0,0-1.747,1.325l-1.334-1.342c.3-.258.614-.546.946-.807a9.833,9.833,0,0,1,2.876-1.561.2.2,0,0,1,.173.022C-938.989,552.853-938.608,553.354-938.2,553.883Z" transform="translate(946.14 -546.082)" fill="#a4a4a4"/>
  <path id="Path_18577" data-name="Path 18577" d="M-856.846,653.932a4.436,4.436,0,0,0-3.911,1.188l-1.329-1.333c.212-.178.432-.382.67-.56a6.151,6.151,0,0,1,3.017-1.2.218.218,0,0,1,.17.065c.45.578.893,1.161,1.337,1.743A.648.648,0,0,1-856.846,653.932Z" transform="translate(867.624 -642.385)" fill="#a4a4a4"/>
</svg>
