<svg xmlns="http://www.w3.org/2000/svg" width="59.421" height="66.037" viewBox="0 0 59.421 66.037">
  <path id="Icon_material-fingerprint" data-name="Icon material-fingerprint" d="M53.406,11.156a1.534,1.534,0,0,1-.759-.2A37.779,37.779,0,0,0,34.255,6.3a37.775,37.775,0,0,0-18.391,4.656,1.655,1.655,0,0,1-1.585-2.906,42.012,42.012,0,0,1,39.886-.033,1.671,1.671,0,0,1-.759,3.137ZM6.157,28.49a1.72,1.72,0,0,1-.958-.3,1.646,1.646,0,0,1-.4-2.311,34.137,34.137,0,0,1,12.382-10.8,38.114,38.114,0,0,1,34.042-.033A34.267,34.267,0,0,1,63.608,25.783,1.658,1.658,0,0,1,60.9,27.7,31,31,0,0,0,49.708,17.99a34.792,34.792,0,0,0-31.037.033A31.323,31.323,0,0,0,7.444,27.8a1.439,1.439,0,0,1-1.288.693ZM26.793,68.343a1.549,1.549,0,0,1-1.156-.5A33.379,33.379,0,0,1,19,59.131,29.31,29.31,0,0,1,15.534,44.8c0-9.806,8.387-17.8,18.688-17.8s18.688,7.99,18.688,17.8a1.651,1.651,0,1,1-3.3,0c0-7.99-6.9-14.5-15.387-14.5s-15.387,6.5-15.387,14.5a25.867,25.867,0,0,0,3.071,12.712,31.253,31.253,0,0,0,6.108,7.99,1.7,1.7,0,0,1,0,2.344A1.811,1.811,0,0,1,26.793,68.343Zm23.674-6.108A17.781,17.781,0,0,1,40.232,59.3a17.58,17.58,0,0,1-7.858-14.5,1.651,1.651,0,0,1,3.3,0,14.2,14.2,0,0,0,6.406,11.755A14.478,14.478,0,0,0,50.467,58.9a21.821,21.821,0,0,0,3.434-.33,1.658,1.658,0,1,1,.561,3.269A22.548,22.548,0,0,1,50.467,62.235Zm-6.637,6.8a1.933,1.933,0,0,1-.429-.066,25.762,25.762,0,0,1-12.283-6.934A24.092,24.092,0,0,1,23.953,44.8a9.957,9.957,0,0,1,10.17-9.707A9.957,9.957,0,0,1,44.293,44.8a6.884,6.884,0,0,0,13.736,0C58.028,32.353,47.3,22.25,34.09,22.25A24.1,24.1,0,0,0,12.265,35.556,21.241,21.241,0,0,0,10.317,44.8a32.812,32.812,0,0,0,2.212,11.92,1.611,1.611,0,0,1-.958,2.113,1.638,1.638,0,0,1-2.113-.958A36.784,36.784,0,0,1,7.048,44.8,24.806,24.806,0,0,1,9.293,34.1a27.4,27.4,0,0,1,24.8-15.188c15.023,0,27.24,11.589,27.24,25.853a10.181,10.181,0,0,1-20.339,0,6.649,6.649,0,0,0-6.868-6.406,6.649,6.649,0,0,0-6.868,6.406A20.793,20.793,0,0,0,33.43,59.659a22.452,22.452,0,0,0,10.8,6.108,1.639,1.639,0,0,1,1.156,2.014A1.611,1.611,0,0,1,43.831,69.037Z" transform="translate(-4.495 -3)" fill="#fff"/>
</svg>
