<svg xmlns="http://www.w3.org/2000/svg" width="20.075" height="20.075" viewBox="0 0 20.075 20.075">
  <g id="Icon_feather-layout" data-name="Icon feather-layout" transform="translate(-3 -3)">
    <path id="Path_18611" data-name="Path 18611" d="M6.011,3H20.064a3.015,3.015,0,0,1,3.011,3.011V20.064a3.015,3.015,0,0,1-3.011,3.011H6.011A3.015,3.015,0,0,1,3,20.064V6.011A3.015,3.015,0,0,1,6.011,3ZM20.064,21.068a1,1,0,0,0,1-1V6.011a1,1,0,0,0-1-1H6.011a1,1,0,0,0-1,1V20.064a1,1,0,0,0,1,1Z" transform="translate(0 0)" fill="#79c32b"/>
    <path id="Path_18612" data-name="Path 18612" d="M22.071,14.008H4A1,1,0,1,1,4,12H22.071a1,1,0,1,1,0,2.008Z" transform="translate(0 -2.977)" fill="#79c32b"/>
    <path id="Path_18613" data-name="Path 18613" d="M13,26.053a1,1,0,0,1-1-1V13a1,1,0,1,1,2.008,0V25.049A1,1,0,0,1,13,26.053Z" transform="translate(-2.977 -2.977)" fill="#79c32b"/>
  </g>
</svg>
