<svg xmlns="http://www.w3.org/2000/svg" width="22" height="22" viewBox="0 0 22 22">
  <g id="Icon_ionic-ios-information-circle-outline" data-name="Icon ionic-ios-information-circle-outline" transform="translate(-3.375 -3.375)">
    <path id="Path_18450" data-name="Path 18450" d="M14.375,4.856A9.515,9.515,0,1,1,7.643,7.643a9.456,9.456,0,0,1,6.732-2.787m0-1.481a11,11,0,1,0,11,11,11,11,0,0,0-11-11Z" fill="#fff"/>
    <path id="Icon_open-question-mark" data-name="Icon open-question-mark" d="M3.293,0A3.446,3.446,0,0,0,.787.88,2.909,2.909,0,0,0,0,2.587l1.333.173a1.616,1.616,0,0,1,.413-.92,1.98,1.98,0,0,1,1.547-.507,2.353,2.353,0,0,1,1.627.453,1.115,1.115,0,0,1,.373.88c0,1.107-.453,1.413-1.12,2a3.8,3.8,0,0,0-1.547,3V8H3.96V7.667a2.218,2.218,0,0,1,1.08-2,3.823,3.823,0,0,0,1.587-3A2.562,2.562,0,0,0,5.84.787,3.685,3.685,0,0,0,3.293,0ZM2.627,9.333v1.333H3.96V9.333Z" transform="translate(11.062 8.847)" fill="#fff"/>
  </g>
</svg>
