<svg xmlns="http://www.w3.org/2000/svg" width="17.143" height="20" viewBox="0 0 17.143 20">
  <path id="Icon_metro-language" data-name="Icon metro-language" d="M12.069,14.235q-.011.033-.14-.006t-.352-.128l-.223-.1a6.687,6.687,0,0,1-.971-.547q-.078-.056-.458-.352T9.5,12.784a19.013,19.013,0,0,1-1.5,2.02,8.3,8.3,0,0,1-1.172,1.228.884.884,0,0,1-.218.045.43.43,0,0,1-.206,0q.067-.045.915-1.027.234-.268.954-1.283a15.6,15.6,0,0,0,.876-1.317q.19-.335.569-1.1a8.7,8.7,0,0,0,.4-.865,9.171,9.171,0,0,0-1.228.368q-.089.022-.307.084l-.385.106a1.912,1.912,0,0,0-.19.056A.19.19,0,0,0,8,11.216a.248.248,0,0,1-.011.106q-.056.112-.346.167a.9.9,0,0,1-.525,0,.471.471,0,0,1-.312-.234A.568.568,0,0,1,6.745,11a2.157,2.157,0,0,1,.273-.056,3.332,3.332,0,0,0,.329-.067Q8,10.7,8.52,10.518q1.116-.391,1.138-.391a2.476,2.476,0,0,0,.48-.218,5.048,5.048,0,0,1,.491-.24q.1-.033.24-.089t.162-.061a.149.149,0,0,1,.067.006,1.27,1.27,0,0,1-.011.368,2.376,2.376,0,0,1-.14.3q-.14.279-.3.6t-.19.374A16.738,16.738,0,0,1,9.6,12.627l.714.312q.134.067.831.357l.753.312q.045.011.117.285a.846.846,0,0,1,.05.34ZM9.781,8.811a.453.453,0,0,1-.045.312,1.012,1.012,0,0,1-.558.424,1.792,1.792,0,0,1-.67.134.924.924,0,0,1-.547-.29.839.839,0,0,1-.2-.458L7.772,8.9a.478.478,0,0,0,.218.056.971.971,0,0,0,.3,0q.112-.022.647-.179a3.187,3.187,0,0,1,.614-.156.22.22,0,0,1,.234.19Zm7.79,1.44.7,2.533-1.551-.469ZM5.205,19.179l7.745-2.589V5.072l-7.745,2.6V19.179Zm13.85-3.538,1.138.346-2.02-7.333-1.116-.346L14.647,14.29l1.138.346.5-1.228,2.355.725ZM13.442,4.9l6.4,2.054V2.717ZM16.913,19.67l1.763.145-.6,1.786-.446-.737a8.273,8.273,0,0,1-3.08,1.205,5.349,5.349,0,0,1-1.016.134h-.937a7.543,7.543,0,0,1-2.227-.435,7.411,7.411,0,0,1-2.048-.949.233.233,0,0,1-.089-.179.216.216,0,0,1,.056-.151.187.187,0,0,1,.145-.061.628.628,0,0,1,.2.084l.34.184q.184.1.229.123a9.888,9.888,0,0,0,1.78.686,6.5,6.5,0,0,0,1.758.273,9.524,9.524,0,0,0,1.864-.162,9.2,9.2,0,0,0,1.752-.564q.167-.078.34-.173t.379-.212q.206-.117.318-.184Zm5-12.042V19.67l-8.638-2.745q-.156.067-4.185,1.423T4.982,19.7a.2.2,0,0,1-.2-.145.086.086,0,0,0-.011-.033V7.494a.5.5,0,0,1,.045-.112.5.5,0,0,1,.223-.123Q6.221,6.869,6.7,6.7V2.416l6.228,2.21q.022,0,1.791-.614T18.246,2.8q1.758-.6,1.8-.6.223,0,.223.234V7.1Z" transform="translate(-4.77 -2.203)" fill="#d1d1d1"/>
</svg>
