<svg xmlns="http://www.w3.org/2000/svg" width="20.15" height="20.15" viewBox="0 0 20.15 20.15">
  <path id="Icon_ionic-md-exit" data-name="Icon ionic-md-exit" d="M12.448,18.605l1.567,1.567,5.6-5.6-5.6-5.6-1.567,1.567,2.911,2.911H4.5v2.239H15.3ZM22.411,4.5H6.739A2.245,2.245,0,0,0,4.5,6.739v4.478H6.739V6.739H22.411V22.412H6.739V17.934H4.5v4.478A2.245,2.245,0,0,0,6.739,24.65H22.411a2.245,2.245,0,0,0,2.239-2.239V6.739A2.245,2.245,0,0,0,22.411,4.5Z" transform="translate(-4.5 -4.5)" fill="#dfff00"/>
</svg>
