<svg xmlns="http://www.w3.org/2000/svg" width="11.735" height="11.735" viewBox="0 0 11.735 11.735">
  <path id="Icon_material-language" data-name="Icon material-language" d="M8.862,3a5.868,5.868,0,1,0,5.874,5.868A5.865,5.865,0,0,0,8.862,3Zm4.066,3.521H11.2a9.182,9.182,0,0,0-.81-2.089A4.712,4.712,0,0,1,12.928,6.521ZM8.868,4.2A8.266,8.266,0,0,1,9.988,6.521H7.747A8.266,8.266,0,0,1,8.868,4.2ZM4.326,10.041a4.59,4.59,0,0,1,0-2.347H6.309a9.691,9.691,0,0,0-.082,1.174,9.691,9.691,0,0,0,.082,1.174Zm.481,1.174H6.538a9.182,9.182,0,0,0,.81,2.089A4.686,4.686,0,0,1,4.807,11.215ZM6.538,6.521H4.807A4.686,4.686,0,0,1,7.348,4.432,9.182,9.182,0,0,0,6.538,6.521Zm2.329,7.018a8.266,8.266,0,0,1-1.121-2.324H9.988A8.266,8.266,0,0,1,8.868,13.538Zm1.373-3.5H7.495A8.633,8.633,0,0,1,7.4,8.868a8.558,8.558,0,0,1,.094-1.174h2.746a8.558,8.558,0,0,1,.094,1.174A8.633,8.633,0,0,1,10.241,10.041Zm.147,3.262a9.182,9.182,0,0,0,.81-2.089h1.731A4.712,4.712,0,0,1,10.387,13.3Zm1.039-3.262a9.69,9.69,0,0,0,.082-1.174,9.691,9.691,0,0,0-.082-1.174h1.983a4.59,4.59,0,0,1,0,2.347Z" transform="translate(-3 -3)" fill="#fff"/>
</svg>
