<svg xmlns="http://www.w3.org/2000/svg" width="18.319" height="20.15" viewBox="0 0 18.319 20.15">
  <g id="Icon_feather-lock" data-name="Icon feather-lock" transform="translate(-3 -1.5)">
    <path id="Path_18611" data-name="Path 18611" d="M5.748,15H18.571a2.751,2.751,0,0,1,2.748,2.748v6.411a2.751,2.751,0,0,1-2.748,2.748H5.748A2.751,2.751,0,0,1,3,24.159V17.748A2.751,2.751,0,0,1,5.748,15ZM18.571,25.075a.917.917,0,0,0,.916-.916V17.748a.917.917,0,0,0-.916-.916H5.748a.917.917,0,0,0-.916.916v6.411a.917.917,0,0,0,.916.916Z" transform="translate(0 -5.257)" fill="#d48c00"/>
    <path id="Path_18612" data-name="Path 18612" d="M19.075,11.575a.916.916,0,0,1-.916-.916V7a3.664,3.664,0,1,0-7.327,0v3.664a.916.916,0,1,1-1.832,0V7A5.5,5.5,0,1,1,19.991,7v3.664A.916.916,0,0,1,19.075,11.575Z" transform="translate(-2.336 0)" fill="#d48c00"/>
  </g>
</svg>
