<svg xmlns="http://www.w3.org/2000/svg" width="18.644" height="25.635" viewBox="0 0 18.644 25.635">
  <path id="Icon_material-developer-mode" data-name="Icon material-developer-mode" d="M9.5,6.161H21.148V8.491h2.33V3.831a2.327,2.327,0,0,0-2.33-2.319L9.5,1.5A2.337,2.337,0,0,0,7.165,3.831V8.491H9.5Zm9.8,13.505,5.348-5.348L19.3,8.969l-1.643,1.655,3.694,3.694-3.694,3.694L19.3,19.666Zm-6.3-1.655L9.3,14.318l3.694-3.694L11.348,8.969,6,14.318l5.348,5.348Zm8.157,4.463H9.5v-2.33H7.165V24.8A2.337,2.337,0,0,0,9.5,27.135H21.148a2.337,2.337,0,0,0,2.33-2.33V20.144h-2.33Z" transform="translate(-6 -1.5)" fill="#f7a43a"/>
</svg>
