<svg xmlns="http://www.w3.org/2000/svg" width="19.12" height="25.906" viewBox="0 0 19.12 25.906"><g transform="translate(-460.032 -427.957)"><path d="M466.874,481.9a1.968,1.968,0,0,1-1.476-2.141c.037-4.1.01-8.208.023-12.313a1.171,1.171,0,0,0-.408-.955c-1.484-1.368-2.92-2.786-4.429-4.128a1.653,1.653,0,0,1-.148-2.317,1.831,1.831,0,0,1,2.414.165c1.047,1.105,2.18,2.138,3.3,3.176a1.267,1.267,0,0,0,.766.311q2.637.04,5.274,0a1.354,1.354,0,0,0,.82-.322c1.138-1.049,2.24-2.135,3.359-3.2a1.708,1.708,0,0,1,2.354-.11,1.511,1.511,0,0,1-.118,2.211q-2.171,2.106-4.37,4.186a1.179,1.179,0,0,0-.417.946q.024,6.243.008,12.485a1.774,1.774,0,0,1-1.821,1.925,1.755,1.755,0,0,1-1.86-1.882c-.018-1.764-.005-3.529-.005-5.293,0-.207,0-.413,0-.653h-1.1v2.3c0,1.132-.046,2.265.013,3.394a1.994,1.994,0,0,1-1.458,2.215Z" transform="translate(0 -28.037)" fill="#79c32b"/><path d="M512.513,427.957a3.933,3.933,0,0,1,2.367,1.481,3.7,3.7,0,0,1-.121,4.379,3.653,3.653,0,0,1-4.266,1,3.525,3.525,0,0,1-2.045-3.8,3.421,3.421,0,0,1,2.779-2.963c.049-.012.09-.061.134-.094Z" transform="translate(-42.423)" fill="#79c32b"/></g></svg>