<svg xmlns="http://www.w3.org/2000/svg" width="23.089" height="19.576" viewBox="0 0 23.089 19.576">
  <path id="Icon_material-queue-play-next" data-name="Icon material-queue-play-next" d="M21.578,4.5H3.508A2,2,0,0,0,1.5,6.508V18.554a2.007,2.007,0,0,0,2.008,2.008H8.527V22.57h8.031V20.562h2.008V18.554H3.508V6.508h18.07v8.031h2.008V6.508A2.007,2.007,0,0,0,21.578,4.5Zm-8.031,7.027V8.516H11.539v3.012H8.527v2.008h3.012v3.012h2.008V13.535h3.012V11.527Zm11.043,8.031-4.517,4.517L18.566,22.57l3.012-3.012-3.012-3.012,1.506-1.506Z" transform="translate(-1.5 -4.5)" fill="#ffa800"/>
</svg>
