<svg xmlns="http://www.w3.org/2000/svg" width="20.15" height="20.15" viewBox="0 0 20.15 20.15">
  <path id="person" d="M22.971,24.65a1.645,1.645,0,0,0,1.679-1.679c0-1.679-1.679-6.717-10.075-6.717S4.5,21.292,4.5,22.971A1.645,1.645,0,0,0,6.179,24.65ZM6.187,23.065v0Zm.028-.094H22.934l.024,0,.013,0a4.483,4.483,0,0,0-1.4-2.794c-1.095-1.094-3.155-2.236-7-2.236s-5.9,1.142-7,2.237a4.5,4.5,0,0,0-1.4,2.794Zm16.749.094v0ZM14.575,12.9a3.358,3.358,0,1,0-3.358-3.358A3.358,3.358,0,0,0,14.575,12.9Zm5.038-3.358A5.038,5.038,0,1,1,14.575,4.5,5.038,5.038,0,0,1,19.613,9.538Z" transform="translate(-4.5 -4.5)" fill="#03b7da" fill-rule="evenodd"/>
</svg>
