<svg xmlns="http://www.w3.org/2000/svg" width="45" height="45" viewBox="0 0 45 45">
  <g id="Group_13051" data-name="Group 13051" transform="translate(-29 -109)" opacity="0.6">
    <path id="Path_18548" data-name="Path 18548" d="M24,1.5a22.506,22.506,0,0,1,8.758,43.231A22.505,22.505,0,0,1,15.242,3.269,22.36,22.36,0,0,1,24,1.5Zm0,42A19.5,19.5,0,1,0,4.5,24,19.522,19.522,0,0,0,24,43.5Z" transform="translate(27.5 107.5)" fill="#fff"/>
    <path id="Path_18549" data-name="Path 18549" d="M15,27.6a1.5,1.5,0,0,1-1.5-1.5V13.5a1.5,1.5,0,0,1,3,0V26.1A1.5,1.5,0,0,1,15,27.6Z" transform="translate(32.3 111.7)" fill="#fff"/>
    <path id="Path_18550" data-name="Path 18550" d="M21,27.6a1.5,1.5,0,0,1-1.5-1.5V13.5a1.5,1.5,0,0,1,3,0V26.1A1.5,1.5,0,0,1,21,27.6Z" transform="translate(34.7 111.7)" fill="#fff"/>
  </g>
</svg>
