<svg xmlns="http://www.w3.org/2000/svg" width="16.938" height="30.686" viewBox="0 0 16.938 30.686"><g transform="translate(-590.341 -26.634)"><path d="M598.724,96.921c-.716.877-1.9.674-2.987.67s-1.463-.262-1.464-1.024c-.007-3.042,0-6.083,0-9.125v-.951c-.791,0-1.505.006-2.22,0-1.085-.011-1.678-.361-1.684-1.1-.024-3.167-.041-6.335,0-9.5.018-1.246,1.264-2.045,3.083-2.085,1.057-.023,2.116-.016,3.173,0s2.148.971,1.728,1.615a3.411,3.411,0,0,0,.017,4.151,2.78,2.78,0,0,0,.539.748,14.5,14.5,0,0,0,1.147-2.724c.11-.531-.389-1.116-.572-1.684-.13-.4-.462-.935-.224-1.2a2.705,2.705,0,0,1,2.532-.923c.761.1,1.568,0,2.353.021,1.857.042,3.091.848,3.107,2.136.04,3.125.024,6.251.007,9.377,0,.807-.58,1.161-1.766,1.171-.6.005-1.209,0-1.813.007-.059,0-.118.015-.294.04-.013.2-.04.42-.041.64q0,4.562,0,9.125c0,1.126-.229,1.289-1.807,1.291A4.026,4.026,0,0,1,598.724,96.921Z" transform="translate(0 -40.294)" fill="#1174cc"/><path d="M621.873,29.709a3.089,3.089,0,1,1-6.178.025,3.089,3.089,0,0,1,6.178-.025Z" transform="translate(-19.976)" fill="#1174cc"/></g></svg>