<svg xmlns="http://www.w3.org/2000/svg" width="34.727" height="34.727" viewBox="0 0 34.727 34.727">
  <path id="Icon_metro-qrcode" data-name="Icon metro-qrcode" d="M13.423,4.1H4.741V12.78h8.682Zm2.17-2.17V14.951H2.571V1.928ZM6.912,6.269h4.341V10.61H6.912ZM35.127,4.1H26.445V12.78h8.682V4.1Zm2.17-2.17V14.951H24.275V1.928H37.3ZM28.616,6.269h4.341V10.61H28.616ZM13.423,25.8H4.741v8.682h8.682Zm2.17-2.17V36.655H2.571V23.632ZM6.912,27.973h4.341v4.341H6.912ZM17.764,1.928h2.17V4.1h-2.17Zm2.17,2.17H22.1v2.17h-2.17Zm-2.17,2.17h2.17v2.17h-2.17Zm2.17,2.17H22.1v2.17h-2.17Zm-2.17,2.17h2.17v2.17h-2.17Zm2.17,2.17H22.1v2.17h-2.17Zm-2.17,2.17h2.17v2.17h-2.17Zm0,4.341h2.17v2.17h-2.17Zm2.17,2.17H22.1v2.17h-2.17Zm-2.17,2.17h2.17V25.8h-2.17Zm2.17,2.17H22.1v2.17h-2.17Zm-2.17,2.17h2.17v2.17h-2.17Zm2.17,2.17H22.1v2.17h-2.17Zm-2.17,2.17h2.17v2.17h-2.17Zm2.17,2.17H22.1v2.17h-2.17ZM35.127,19.291H37.3v2.17h-2.17Zm-30.386,0h2.17v2.17H4.741Zm2.17-2.17h2.17v2.17H6.912Zm-4.341,0h2.17v2.17H2.571Zm8.682,0h2.17v2.17h-2.17Zm2.17,2.17h2.17v2.17h-2.17Zm2.17-2.17h2.17v2.17h-2.17Zm6.511,2.17h2.17v2.17H22.1Zm2.17-2.17h2.17v2.17h-2.17Zm2.17,2.17h2.17v2.17h-2.17Zm2.17-2.17h2.17v2.17h-2.17Zm2.17,2.17h2.17v2.17h-2.17Zm2.17-2.17h2.17v2.17h-2.17Zm2.17,6.511H37.3V25.8h-2.17Zm-13.022,0h2.17V25.8H22.1Zm2.17-2.17h2.17v2.17h-2.17Zm2.17,2.17h2.17V25.8h-2.17Zm4.341,0h2.17V25.8h-2.17Zm2.17-2.17h2.17v2.17h-2.17Zm2.17,6.511H37.3v2.17h-2.17Zm-13.022,0h2.17v2.17H22.1Zm2.17-2.17h2.17v2.17h-2.17Zm4.341,0h2.17v2.17h-2.17Zm2.17,2.17h2.17v2.17h-2.17Zm2.17-2.17h2.17v2.17h-2.17Zm2.17,6.511H37.3v2.17h-2.17Zm-10.852-2.17h2.17v2.17h-2.17Zm2.17,2.17h2.17v2.17h-2.17Zm2.17-2.17h2.17v2.17h-2.17Zm2.17,2.17h2.17v2.17h-2.17Zm-6.511,2.17h2.17v2.17h-2.17Zm4.341,0h2.17v2.17h-2.17Zm4.341,0h2.17v2.17h-2.17Z" transform="translate(-2.571 -1.928)" fill="#1174cc"/>
</svg>
