<svg xmlns="http://www.w3.org/2000/svg" width="23.089" height="17.214" viewBox="0 0 23.089 17.214">
  <g id="Group_13114" data-name="Group 13114" transform="translate(543.399 -287.871)">
    <path id="Path_18567" data-name="Path 18567" d="M-522.714,293.868c-1.877.789-3.639,1.526-5.4,2.271-.8.34-1.589.708-2.389,1.046a3.207,3.207,0,0,1-2.5.08q-4.6-1.833-9.184-3.718a4.357,4.357,0,0,1-.974-.6.451.451,0,0,1,.029-.815,4.736,4.736,0,0,1,.922-.477c3.048-1.179,6.1-2.336,9.149-3.523a3.52,3.52,0,0,1,2.817.07c2.867,1.208,5.773,2.325,8.66,3.486a5.714,5.714,0,0,1,.973.5c.4.256.4.566-.036.726-.646.236-.731.672-.684,1.255a10.782,10.782,0,0,1,0,1.362c-.043.923-.082,1.836.967,2.4l-1.758,1.544-1.509-1.426c.012-.057.01-.082.02-.09a2.837,2.837,0,0,0,.89-2.772C-522.736,294.786-522.714,294.387-522.714,293.868Z" fill="#03b7da"/>
    <path id="Path_18568" data-name="Path 18568" d="M-496.843,371.538l4.855,1.643a4.976,4.976,0,0,0,3.952-.139c1.186-.581,2.4-1.1,3.61-1.637.2-.092.411-.174.666-.282.014.19.035.336.035.483,0,1.711-.01,3.422.011,5.132a.9.9,0,0,1-.386.793,9.484,9.484,0,0,1-6.677,2.059,10.116,10.116,0,0,1-5.616-2.015,1.006,1.006,0,0,1-.461-.91C-496.827,374.972-496.843,373.28-496.843,371.538Z" transform="translate(-41.666 -74.526)" fill="#03b7da"/>
  </g>
</svg>
