<svg xmlns="http://www.w3.org/2000/svg" width="22.461" height="22" viewBox="0 0 22.461 22">
  <g id="Group_13521" data-name="Group 13521" transform="translate(270.516 439.776)">
    <path id="Path_18651" data-name="Path 18651" d="M-259.279-439.774a10.272,10.272,0,0,1,9.674,6.888c.193.525.255,1.116.97,1.279.157.036.284.389.346.618a7.113,7.113,0,0,1-.387,4.676,1.04,1.04,0,0,1-1.306.684c-1.532-.267-1.524-.238-1.314-1.805.158-1.185.309-2.372.4-3.563a3.09,3.09,0,0,0-.184-1.308,8.8,8.8,0,0,0-7.553-5.71,8.782,8.782,0,0,0-8.734,5.318c-.606,1.276-.145,2.5-.084,3.741.041.845.156,1.687.253,2.528.055.475-.133.663-.613.712-1.844.189-1.945.12-2.453-1.69a6.574,6.574,0,0,1-.023-3.541c.081-.3.446-.521.649-.8a4.275,4.275,0,0,0,.6-.962,10.18,10.18,0,0,1,7.177-6.7A20.272,20.272,0,0,1-259.279-439.774Z" fill="#fff"/>
    <path id="Path_18652" data-name="Path 18652" d="M-235.88-369.488a6.441,6.441,0,0,1-1.181-7.2,6.4,6.4,0,0,1,7.306-3.584,6.431,6.431,0,0,1,4.978,6.8,6.387,6.387,0,0,1-5.489,5.835,6.328,6.328,0,0,1-1.85-.006,4.343,4.343,0,0,0-2.178.126,5.372,5.372,0,0,1-1.843.172c-.688-.025-.9-.506-.525-1.073C-236.428-368.774-236.163-369.1-235.88-369.488Zm.282,1.266a2.823,2.823,0,0,0,.817-.1,5.2,5.2,0,0,1,3.029-.216,5.123,5.123,0,0,0,5.324-2.715,5.249,5.249,0,0,0-.343-6.045,5.454,5.454,0,0,0-5.7-2.089,5.5,5.5,0,0,0-2.921,8.984,1.163,1.163,0,0,1,.069,1.718A4.217,4.217,0,0,0-235.6-368.221Z" transform="translate(-27.916 -50.437)" fill="#fff"/>
    <path id="Path_18653" data-name="Path 18653" d="M-198.69-342.169a.963.963,0,0,1-.973,1,.965.965,0,0,1-1.016-1.032.951.951,0,0,1,1.009-.96A.958.958,0,0,1-198.69-342.169Z" transform="translate(-59.376 -82.145)" fill="#fff"/>
    <path id="Path_18654" data-name="Path 18654" d="M-177.968-341.153a1,1,0,0,1-1.024-.967.99.99,0,0,1,.963-1.022.97.97,0,0,1,1.056,1A.993.993,0,0,1-177.968-341.153Z" transform="translate(-77.815 -82.159)" fill="#fff"/>
    <path id="Path_18655" data-name="Path 18655" d="M-220.548-342.168a.972.972,0,0,1-.97,1.007.989.989,0,0,1-1.032-1.023.969.969,0,0,1,1.01-.966A.974.974,0,0,1-220.548-342.168Z" transform="translate(-40.781 -82.151)" fill="#fff"/>
  </g>
</svg>
