<svg xmlns="http://www.w3.org/2000/svg" width="20.791" height="21.649" viewBox="0 0 20.791 21.649">
  <path id="Icon_awesome-cog" data-name="Icon awesome-cog" d="M10.957,21.47a10.937,10.937,0,0,1-2.381-.262A1.242,1.242,0,0,1,7.608,20V18.516a8.367,8.367,0,0,1-1.79-1.034l-1.285.742a1.224,1.224,0,0,1-.615.165,1.247,1.247,0,0,1-.912-.4,10.938,10.938,0,0,1-2.388-4.13l0-.01a1.237,1.237,0,0,1,.57-1.433l1.284-.741a8.524,8.524,0,0,1,0-2.065L1.182,8.869A1.228,1.228,0,0,1,.618,7.425,10.871,10.871,0,0,1,3,3.3a1.233,1.233,0,0,1,1.526-.238l1.287.745A8.61,8.61,0,0,1,7.6,2.776V1.289A1.243,1.243,0,0,1,8.576.08a11.021,11.021,0,0,1,4.76,0A1.242,1.242,0,0,1,14.3,1.289V2.769A8.367,8.367,0,0,1,16.094,3.8l1.285-.742a1.224,1.224,0,0,1,.615-.165,1.247,1.247,0,0,1,.912.4,10.938,10.938,0,0,1,2.388,4.13l0,.01a1.237,1.237,0,0,1-.57,1.433l-1.284.741a8.524,8.524,0,0,1,0,2.065l1.287.743a1.252,1.252,0,0,1,.576,1.42l-.007.025a10.875,10.875,0,0,1-2.386,4.127,1.234,1.234,0,0,1-.91.4h0a1.245,1.245,0,0,1-.616-.164L16.1,17.481a8.61,8.61,0,0,1-1.788,1.032V20a1.243,1.243,0,0,1-.972,1.208A10.931,10.931,0,0,1,10.957,21.47Zm-1.85-1.683a9.5,9.5,0,0,0,3.7,0V17.473l.5-.177A7.133,7.133,0,0,0,15.542,16l.4-.342,2,1.157A9.376,9.376,0,0,0,19.8,13.613L17.79,12.451l.1-.521a7.048,7.048,0,0,0,0-2.579l-.1-.521L19.8,7.671a9.437,9.437,0,0,0-1.854-3.2L15.938,5.625l-.4-.347a6.893,6.893,0,0,0-2.229-1.287l-.5-.176V1.5a9.5,9.5,0,0,0-3.7,0V3.817l-.5.177A7.133,7.133,0,0,0,6.369,5.285l-.4.343-2-1.157a9.376,9.376,0,0,0-1.853,3.2L4.122,8.834l-.1.521a7.048,7.048,0,0,0,0,2.579l.1.521L2.114,13.614a9.437,9.437,0,0,0,1.854,3.2L5.973,15.66l.4.347a6.893,6.893,0,0,0,2.229,1.287l.5.176Zm1.846-5.147a4,4,0,1,1,4-4A4,4,0,0,1,10.954,14.641Zm0-6.5a2.5,2.5,0,1,0,2.5,2.5A2.5,2.5,0,0,0,10.954,8.141Z" transform="translate(-0.56 0.179)" fill="#c4c4c4"/>
</svg>
