<svg xmlns="http://www.w3.org/2000/svg" width="18.644" height="18.644" viewBox="0 0 18.644 18.644">
  <path id="Icon_awesome-check-square" data-name="Icon awesome-check-square" d="M16.646,20.894H2a2,2,0,0,1-2-2V4.248a2,2,0,0,1,2-2H16.646a2,2,0,0,1,2,2V18.9A2,2,0,0,1,16.646,20.894ZM8.128,16.813l7.657-7.657a.666.666,0,0,0,0-.942l-.942-.942a.666.666,0,0,0-.942,0L7.657,13.517,4.742,10.6a.666.666,0,0,0-.942,0l-.942.942a.666.666,0,0,0,0,.942l4.328,4.328a.666.666,0,0,0,.942,0Z" transform="translate(0 -2.25)" fill="#79c32b"/>
</svg>
