<svg xmlns="http://www.w3.org/2000/svg" width="19.279" height="19.279" viewBox="0 0 19.279 19.279">
  <path id="Icon_material-copyright" data-name="Icon material-copyright" d="M10.789,11.541a2.465,2.465,0,0,1,.289-.839,1.686,1.686,0,0,1,.569-.6,1.711,1.711,0,0,1,.877-.222,1.747,1.747,0,0,1,.607.125,1.554,1.554,0,0,1,.5.347,1.856,1.856,0,0,1,.328.511,1.688,1.688,0,0,1,.135.617h1.725a3.451,3.451,0,0,0-.27-1.244,2.893,2.893,0,0,0-.675-.974,3.148,3.148,0,0,0-1.041-.636,3.724,3.724,0,0,0-1.34-.222,3.767,3.767,0,0,0-1.639.328A3.315,3.315,0,0,0,9.7,9.622a3.624,3.624,0,0,0-.684,1.311,5.645,5.645,0,0,0-.231,1.581v.26a5.644,5.644,0,0,0,.222,1.581,3.5,3.5,0,0,0,.684,1.3,3.291,3.291,0,0,0,1.157.877,3.912,3.912,0,0,0,1.639.328,3.677,3.677,0,0,0,1.272-.222,3.288,3.288,0,0,0,1.041-.607,2.942,2.942,0,0,0,.713-.906,2.6,2.6,0,0,0,.289-1.109H14.076a1.373,1.373,0,0,1-.145.559,1.418,1.418,0,0,1-.347.443,1.518,1.518,0,0,1-.5.289,1.914,1.914,0,0,1-.578.1,1.637,1.637,0,0,1-.858-.222,1.686,1.686,0,0,1-.569-.6,2.519,2.519,0,0,1-.289-.848,6.5,6.5,0,0,1-.077-.964v-.26a6.423,6.423,0,0,1,.077-.974ZM12.64,3a9.64,9.64,0,1,0,9.64,9.64A9.643,9.643,0,0,0,12.64,3Zm0,17.351a7.712,7.712,0,1,1,7.712-7.712A7.722,7.722,0,0,1,12.64,20.351Z" transform="translate(-3 -3)" fill="#ffa800"/>
</svg>
