<svg xmlns="http://www.w3.org/2000/svg" width="19" height="19" viewBox="0 0 19 19">
  <path id="web" d="M16.642,14.4a15.689,15.689,0,0,0,.133-1.9,15.689,15.689,0,0,0-.133-1.9h3.211a7.431,7.431,0,0,1,0,3.8m-4.892,5.282A14.867,14.867,0,0,0,16.271,16.3h2.8a7.628,7.628,0,0,1-4.113,3.382M14.723,14.4H10.277a11.951,11.951,0,0,1,0-3.8h4.446a13.856,13.856,0,0,1,.152,1.9,13.977,13.977,0,0,1-.152,1.9M12.5,20.062A12.885,12.885,0,0,1,10.686,16.3h3.629A12.885,12.885,0,0,1,12.5,20.062M8.7,8.7H5.926a7.527,7.527,0,0,1,4.1-3.382A16.373,16.373,0,0,0,8.7,8.7M5.926,16.3H8.7a16.373,16.373,0,0,0,1.33,3.382,7.608,7.608,0,0,1-4.1-3.382m-.779-1.9a7.431,7.431,0,0,1,0-3.8H8.358a15.69,15.69,0,0,0-.133,1.9,15.69,15.69,0,0,0,.133,1.9M12.5,4.929A12.938,12.938,0,0,1,14.314,8.7H10.686A12.938,12.938,0,0,1,12.5,4.929M19.074,8.7h-2.8a14.867,14.867,0,0,0-1.311-3.382A7.587,7.587,0,0,1,19.074,8.7M12.5,3A9.5,9.5,0,1,0,22,12.5,9.51,9.51,0,0,0,12.5,3Z" transform="translate(-3 -3)" fill="#b2a9a9"/>
</svg>
