<svg xmlns="http://www.w3.org/2000/svg" width="19.838" height="17" viewBox="0 0 19.838 17">
  <path id="Icon_ionic-md-eye-off" data-name="Icon ionic-md-eye-off" d="M12.171,8.077a4.5,4.5,0,0,1,4.511,4.476,4.305,4.305,0,0,1-.323,1.638L18.993,16.8a10.583,10.583,0,0,0,3.095-4.25A10.683,10.683,0,0,0,8.572,6.466L10.52,8.4A4.46,4.46,0,0,1,12.171,8.077ZM3.153,5.638,5.212,7.679l.416.412A10.533,10.533,0,0,0,2.25,12.553a10.7,10.7,0,0,0,13.87,5.959l.381.376L19.144,21.5l1.147-1.138L4.3,4.5Zm4.985,4.945,1.4,1.386a2.536,2.536,0,0,0-.071.58,2.691,2.691,0,0,0,2.7,2.683,2.544,2.544,0,0,0,.584-.071l1.4,1.386a4.488,4.488,0,0,1-6.495-4A4.422,4.422,0,0,1,8.138,10.583Zm3.887-.7,2.842,2.82.018-.142a2.691,2.691,0,0,0-2.7-2.683Z" transform="translate(-2.25 -4.5)" fill="#1174cc"/>
</svg>
