<svg xmlns="http://www.w3.org/2000/svg" width="47" height="47" viewBox="0 0 47 47">
  <g id="Group_14006" data-name="Group 14006" transform="translate(0 0.049)">
    <circle id="Ellipse_440" data-name="Ellipse 440" cx="23.5" cy="23.5" r="23.5" transform="translate(0 -0.049)" fill="#2d93ee"/>
    <path id="Icon_awesome-wifi" data-name="Icon awesome-wifi" d="M27.785,7.628a20.348,20.348,0,0,0-27.563,0A.7.7,0,0,0,.207,8.633l1.5,1.487a.711.711,0,0,0,.98.017,16.79,16.79,0,0,1,22.636,0,.711.711,0,0,0,.98-.017l1.5-1.487a.7.7,0,0,0-.016-1.006ZM14,16.254a2.8,2.8,0,1,0,2.8,2.8A2.8,2.8,0,0,0,14,16.254ZM22.874,12.6a13.435,13.435,0,0,0-17.739,0,.692.692,0,0,0-.025,1.013L6.617,15.1a.714.714,0,0,0,.965.035,9.857,9.857,0,0,1,12.844,0,.714.714,0,0,0,.965-.035L22.9,13.609A.692.692,0,0,0,22.874,12.6Z" transform="translate(9.496 11.447)" fill="#fff"/>
  </g>
</svg>
