<svg xmlns="http://www.w3.org/2000/svg" xmlns:xlink="http://www.w3.org/1999/xlink" width="18" height="18" viewBox="0 0 18 18">
  <defs>
    <linearGradient id="linear-gradient" x1="0.5" x2="0.5" y2="1" gradientUnits="objectBoundingBox">
      <stop offset="0" stop-color="#f8f5f5"/>
      <stop offset="1" stop-color="#acacac"/>
    </linearGradient>
  </defs>
  <g id="Group_13063" data-name="Group 13063" transform="translate(-140 -512)">
    <circle id="Ellipse_348" data-name="Ellipse 348" cx="9" cy="9" r="9" transform="translate(140 512)" fill="url(#linear-gradient)"/>
    <g id="Group_13062" data-name="Group 13062" transform="translate(142.608 514.608)">
      <path id="Path_18550" data-name="Path 18550" d="M353.823,348.684h.849a.531.531,0,0,0,.094.023,5.827,5.827,0,0,1,1.379.264A6.39,6.39,0,0,1,352.8,361.3a6.3,6.3,0,0,1-3.625-2.336,6.19,6.19,0,0,1-1.25-2.948c-.025-.172-.049-.344-.073-.516v-.874a.972.972,0,0,0,.025-.121,6.035,6.035,0,0,1,.313-1.494,6.388,6.388,0,0,1,5.089-4.252C353.463,348.73,353.643,348.709,353.823,348.684Zm-5.544,6.176H350.8c.049-.5.078-1,.149-1.484s.185-.967.276-1.435l-1.6-.638A5.947,5.947,0,0,0,348.278,354.86Zm10.578-3.556-1.621.645a.491.491,0,0,0,.012.073,10.538,10.538,0,0,1,.4,2.714c0,.1.026.136.133.135.765,0,1.53,0,2.295,0,.04,0,.079,0,.13-.007A5.948,5.948,0,0,0,358.856,351.3Zm1.338,4h-2.546a11.1,11.1,0,0,1-.422,2.929c.287.1.561.183.827.289s.521.232.781.35A5.849,5.849,0,0,0,360.194,355.306Zm-8.944,2.906a11.247,11.247,0,0,1-.424-2.908h-2.548a5.949,5.949,0,0,0,1.346,3.555Zm3.212-5.867v2.516h2.754a10.563,10.563,0,0,0-.409-2.8Zm2.336,5.785a10.557,10.557,0,0,0,.416-2.822h-2.762v.134c0,.757,0,1.514,0,2.27,0,.121.036.15.152.158.472.034.943.074,1.413.126C356.275,358.026,356.53,358.083,356.8,358.13Zm-2.781-5.825a11.659,11.659,0,0,1-2.335-.28,10.5,10.5,0,0,0-.416,2.836h2.751Zm0,5.556v-2.555h-2.75a10.45,10.45,0,0,0,.419,2.832A11.365,11.365,0,0,1,354.015,357.861Zm.446,3.156a.576.576,0,0,0,.068,0,.774.774,0,0,0,.085-.017,1.875,1.875,0,0,0,.676-.334,3.537,3.537,0,0,0,.974-1.215c.152-.288.275-.591.412-.891a8.873,8.873,0,0,0-2.215-.248Zm0-11.884v2.736a9.79,9.79,0,0,0,2.193-.269c-.054-.137-.1-.277-.164-.412a4.446,4.446,0,0,0-1.028-1.544A1.913,1.913,0,0,0,354.465,349.134Zm-.449,0a1.828,1.828,0,0,0-.832.369,3.515,3.515,0,0,0-.965,1.206c-.151.288-.275.59-.412.887a9.6,9.6,0,0,0,2.209.27Zm-2.215,9.422c.146.317.271.624.426.916a3.513,3.513,0,0,0,.943,1.178,1.75,1.75,0,0,0,.844.376v-2.735A10.965,10.965,0,0,0,351.8,358.556Zm3.93-9.251a5.4,5.4,0,0,1,1.368,2.232l1.468-.565A6.017,6.017,0,0,0,355.731,349.3Zm-3.056.02a5.968,5.968,0,0,0-2.739,1.625,6.819,6.819,0,0,0,1.418.55c.193-.394.354-.788.572-1.146S352.42,349.67,352.675,349.325Zm.026,11.508a5.518,5.518,0,0,1-1.311-2.175,6.826,6.826,0,0,0-1.454.558A5.809,5.809,0,0,0,352.7,360.832Zm3.074.015a5.992,5.992,0,0,0,2.768-1.631.99.99,0,0,0-.1-.052c-.413-.16-.827-.316-1.239-.479-.1-.038-.131-.009-.16.081a4.724,4.724,0,0,1-.664,1.317C356.2,360.342,355.987,360.584,355.775,360.848Z" transform="translate(-347.857 -348.684)" fill="#8f8f8f"/>
    </g>
  </g>
</svg>
