<svg xmlns="http://www.w3.org/2000/svg" width="22.016" height="18.017" viewBox="0 0 22.016 18.017">
  <g id="Group_13534" data-name="Group 13534" transform="translate(639.233 193.527)">
    <path id="Path_18659" data-name="Path 18659" d="M-617.218-177.3a2.368,2.368,0,0,1-.476,1.062,1.972,1.972,0,0,1-1.546.716c-2.293.006-4.586,0-6.879,0a.672.672,0,0,1-.083-.013v-1.982h6.968v-14h-17.993v2.982h-1.993c0-.056-.01-.1-.01-.152,0-.925,0-1.849,0-2.774a1.992,1.992,0,0,1,1.51-2,2.458,2.458,0,0,1,.638-.069q8.857-.005,17.713,0a2.009,2.009,0,0,1,2.084,1.514c.026.088.045.178.068.267Z" transform="translate(0 0)" fill="#1174cc"/>
    <path id="Path_18660" data-name="Path 18660" d="M-557.911-111.751h14v9.976c-.071,0-.139.013-.207.013-1.726,0-3.453,0-5.179,0a.253.253,0,0,1-.285-.207,12.938,12.938,0,0,0-4.786-6.418,12.42,12.42,0,0,0-3.312-1.694.283.283,0,0,1-.238-.328C-557.9-110.848-557.911-111.291-557.911-111.751Z" transform="translate(-77.319 -77.758)" fill="#1174cc"/>
    <path id="Path_18661" data-name="Path 18661" d="M-639.011-48.463v-1.966a10.915,10.915,0,0,1,10.982,10.959h-1.982a8.844,8.844,0,0,0-2.625-6.342A8.869,8.869,0,0,0-639.011-48.463Z" transform="translate(-0.211 -136.062)" fill="#1174cc"/>
    <path id="Path_18662" data-name="Path 18662" d="M-639.2,32.95c0-.634,0-1.249,0-1.865a.838.838,0,0,1,.012-.1,6.924,6.924,0,0,1,6.981,6.96,1.736,1.736,0,0,1-.179.018c-.537,0-1.075,0-1.612,0-.156,0-.208-.042-.215-.2a4.849,4.849,0,0,0-2.081-3.888,4.9,4.9,0,0,0-2.752-.912C-639.085,32.962-639.127,32.956-639.2,32.95Z" transform="translate(-0.035 -213.477)" fill="#1174cc"/>
    <path id="Path_18663" data-name="Path 18663" d="M-639,115.387v-2.95a2.891,2.891,0,0,1,2.982,2.95Z" transform="translate(-0.221 -290.922)" fill="#1174cc"/>
  </g>
</svg>
