<svg xmlns="http://www.w3.org/2000/svg" width="20" height="18.65" viewBox="0 0 20 18.65">
  <g id="Group_13494" data-name="Group 13494" transform="translate(-22 -179)">
    <path id="Icon_material-wifi-tethering" data-name="Icon material-wifi-tethering" d="M13,12.5a2,2,0,1,0,2,2A2.006,2.006,0,0,0,13,12.5Zm6,2a6,6,0,1,0-9,5.19l1-1.74a4,4,0,1,1,4,0l1,1.74A6,6,0,0,0,19,14.5Zm-6-10A10,10,0,0,0,7.99,23.15l1-1.73a8.005,8.005,0,1,1,8.01,0l1,1.73A9.993,9.993,0,0,0,13,4.5Z" transform="translate(19 174.5)" fill="#fff"/>
  </g>
</svg>
