<svg xmlns="http://www.w3.org/2000/svg" width="21.908" height="17.925" viewBox="0 0 21.908 17.925">
  <g id="Group_13498" data-name="Group 13498" transform="translate(-16 -458.075)">
    <path id="Icon_material-cast-connected" data-name="Icon material-cast-connected" d="M1.5,19.437v2.987H4.487A2.983,2.983,0,0,0,1.5,19.437Zm0-3.983v1.992a4.981,4.981,0,0,1,4.979,4.979H8.471A6.966,6.966,0,0,0,1.5,15.454ZM19.425,8.483H5.483v1.623a12.979,12.979,0,0,1,8.335,8.335h5.606ZM1.5,11.471v1.992a8.963,8.963,0,0,1,8.962,8.962h1.992A10.954,10.954,0,0,0,1.5,11.471ZM21.416,4.5H3.492A2,2,0,0,0,1.5,6.492V9.479H3.492V6.492H21.416V20.433H14.446v1.992h6.971a2,2,0,0,0,1.992-1.992V6.492A2,2,0,0,0,21.416,4.5Z" transform="translate(14.5 453.575)" fill="#79c32b"/>
  </g>
</svg>
